<svg width="110" height="20" viewBox="0 0 110 20" fill="none" xmlns="http://www.w3.org/2000/svg">
<g clip-path="url(#clip0)">
<path d="M97.8476 12.6509L97.5168 17.3042C97.9901 17.3042 98.1951 17.1009 98.441 16.8567L100.66 14.7359L105.258 18.1034C106.102 18.5734 106.696 18.3259 106.923 17.3276L109.942 3.18422L109.943 3.18339C110.21 1.93672 109.492 1.44922 108.67 1.75505L90.9285 8.54755C89.7176 9.01755 89.736 9.69255 90.7226 9.99839L95.2585 11.4092L105.794 4.81672C106.29 4.48839 106.741 4.67005 106.37 4.99839L97.8476 12.6509Z" fill="#666666"/>
</g>
<path d="M11.5487 20V10.8777H14.6094L15.0686 7.32156H11.5487V5.05147C11.5487 4.0222 11.8333 3.32076 13.311 3.32076L15.1925 3.31999V0.13923C14.8671 0.0969453 13.7502 0 12.4502 0C9.73561 0 7.87715 1.65697 7.87715 4.69927V7.32156H4.80713V10.8777H7.87715V20H11.5487Z" fill="#666666"/>
<path d="M58.75 0H51.25C47.7988 0 45 2.79875 45 6.25V13.75C45 17.2013 47.7988 20 51.25 20H58.75C62.2013 20 65 17.2013 65 13.75V6.25C65 2.79875 62.2013 0 58.75 0ZM63.125 13.75C63.125 16.1625 61.1625 18.125 58.75 18.125H51.25C48.8375 18.125 46.875 16.1625 46.875 13.75V6.25C46.875 3.8375 48.8375 1.875 51.25 1.875H58.75C61.1625 1.875 63.125 3.8375 63.125 6.25V13.75Z" fill="#0A7F2E"/>
<path d="M55 5C52.2387 5 50 7.23875 50 10C50 12.7613 52.2387 15 55 15C57.7613 15 60 12.7613 60 10C60 7.23875 57.7613 5 55 5ZM55 13.125C53.2775 13.125 51.875 11.7225 51.875 10C51.875 8.27625 53.2775 6.875 55 6.875C56.7225 6.875 58.125 8.27625 58.125 10C58.125 11.7225 56.7225 13.125 55 13.125Z" fill="#0A7F2E"/>
<path d="M60.3752 5.29122C60.7432 5.29122 61.0415 4.99294 61.0415 4.62498C61.0415 4.25703 60.7432 3.95874 60.3752 3.95874C60.0073 3.95874 59.709 4.25703 59.709 4.62498C59.709 4.99294 60.0073 5.29122 60.3752 5.29122Z" fill="#0A7F2E"/>
<defs>
<clipPath id="clip0">
<rect width="20" height="20" fill="white" transform="translate(90)"/>
</clipPath>
</defs>
</svg>
