<svg width="160" height="40" viewBox="0 0 160 40" fill="none" xmlns="http://www.w3.org/2000/svg">
<rect x="0.5" y="0.5" width="39" height="39" fill="#0A7F2E" stroke="#666666"/>
<path d="M21.14 14.2C21.5 14.2 21.72 14.36 21.8 14.68L26.24 28H24.42L23.06 23.68H17.38L16.02 28H14.2L18.64 14.68C18.72 14.36 18.94 14.2 19.3 14.2H21.14ZM19.6 16.68L17.86 22.16H22.58L20.84 16.68C20.7867 16.4933 20.7267 16.3067 20.66 16.12C20.6067 15.92 20.5533 15.7333 20.5 15.56H19.94C19.8867 15.7333 19.8333 15.92 19.78 16.12C19.7267 16.3067 19.6667 16.4933 19.6 16.68Z" fill="white"/>
<rect x="60.5" y="0.5" width="39" height="39" fill="#828282" stroke="#666666"/>
<path d="M81.14 14.2C81.5 14.2 81.72 14.36 81.8 14.68L86.24 28H84.42L83.06 23.68H77.38L76.02 28H74.2L78.64 14.68C78.72 14.36 78.94 14.2 79.3 14.2H81.14ZM79.6 16.68L77.86 22.16H82.58L80.84 16.68C80.7867 16.4933 80.7267 16.3067 80.66 16.12C80.6067 15.92 80.5533 15.7333 80.5 15.56H79.94C79.8867 15.7333 79.8333 15.92 79.78 16.12C79.7267 16.3067 79.6667 16.4933 79.6 16.68Z" fill="white"/>
<rect x="120.5" y="0.5" width="39" height="39" fill="#3E3E3E" stroke="#666666"/>
<path d="M141.14 14.2C141.5 14.2 141.72 14.36 141.8 14.68L146.24 28H144.42L143.06 23.68H137.38L136.02 28H134.2L138.64 14.68C138.72 14.36 138.94 14.2 139.3 14.2H141.14ZM139.6 16.68L137.86 22.16H142.58L140.84 16.68C140.787 16.4933 140.727 16.3067 140.66 16.12C140.607 15.92 140.553 15.7333 140.5 15.56H139.94C139.887 15.7333 139.833 15.92 139.78 16.12C139.727 16.3067 139.667 16.4933 139.6 16.68Z" fill="white"/>
</svg>
