<svg width="149" height="45" viewBox="0 0 149 45" fill="none" xmlns="http://www.w3.org/2000/svg">
<rect y="27" width="149" height="6" rx="3" fill="#E0DDDD"/>
<g filter="url(#filter0_d)">
<rect x="19" y="25" width="10" height="10" rx="5" fill="white"/>
</g>
<path d="M2.088 3.72V6.312C2.088 6.632 2.064 6.948 2.016 7.26H3.024L5.544 3.72H6.696L4.284 7.152C4.212 7.256 4.14 7.348 4.068 7.428C4.004 7.5 3.924 7.584 3.828 7.68V7.704C3.932 7.8 4.028 7.896 4.116 7.992C4.204 8.088 4.28 8.184 4.344 8.28L6.864 12H5.676L3.036 8.112H2.016C2.04 8.264 2.056 8.412 2.064 8.556C2.08 8.7 2.088 8.844 2.088 8.988V12H1.044V3.72H2.088ZM10.7858 6.012C11.4338 6.012 11.9298 6.148 12.2738 6.42C12.6178 6.684 12.7898 7.172 12.7898 7.884V12H11.9858L11.8658 11.028C11.7138 11.188 11.5178 11.352 11.2778 11.52C11.0378 11.68 10.7618 11.82 10.4498 11.94C10.1458 12.052 9.81384 12.108 9.45384 12.108C8.93384 12.108 8.50984 11.968 8.18184 11.688C7.86184 11.408 7.70184 11.004 7.70184 10.476V9.84C7.70184 9.384 7.84184 9.032 8.12184 8.784C8.40984 8.528 8.80984 8.4 9.32184 8.4H11.7578V7.884C11.7578 7.524 11.6738 7.268 11.5058 7.116C11.3458 6.956 11.0338 6.876 10.5698 6.876C10.2658 6.876 9.88184 6.892 9.41784 6.924C8.96184 6.956 8.50984 6.992 8.06184 7.032L7.96584 6.276C8.36584 6.212 8.82584 6.152 9.34584 6.096C9.86584 6.04 10.3458 6.012 10.7858 6.012ZM9.65784 11.232C9.94584 11.24 10.2818 11.172 10.6658 11.028C11.0498 10.884 11.4138 10.66 11.7578 10.356V9.168L9.50184 9.18C9.22184 9.188 9.02584 9.264 8.91384 9.408C8.80184 9.544 8.74584 9.736 8.74584 9.984V10.356C8.74584 10.66 8.81784 10.884 8.96184 11.028C9.10584 11.164 9.33784 11.232 9.65784 11.232ZM17.9358 6.156V6.96H16.0758V10.392C16.0758 10.672 16.1358 10.872 16.2558 10.992C16.3758 11.112 16.5798 11.172 16.8678 11.172H17.7558L17.8758 11.952C17.6838 12.008 17.4518 12.048 17.1798 12.072C16.9078 12.096 16.6998 12.108 16.5558 12.108C16.0678 12.108 15.6958 11.972 15.4398 11.7C15.1838 11.428 15.0558 11.036 15.0558 10.524V6.96H13.9998V6.216L15.0558 6.156V4.428H16.0758V6.156H17.9358ZM22.5061 6.156V6.96H20.6461V10.392C20.6461 10.672 20.7061 10.872 20.8261 10.992C20.9461 11.112 21.1501 11.172 21.4381 11.172H22.3261L22.4461 11.952C22.2541 12.008 22.0221 12.048 21.7501 12.072C21.4781 12.096 21.2701 12.108 21.1261 12.108C20.6381 12.108 20.2661 11.972 20.0101 11.7C19.7541 11.428 19.6261 11.036 19.6261 10.524V6.96H18.5701V6.216L19.6261 6.156V4.428H20.6461V6.156H22.5061ZM26.5124 6.012C27.1604 6.012 27.6564 6.148 28.0004 6.42C28.3444 6.684 28.5164 7.172 28.5164 7.884V12H27.7124L27.5924 11.028C27.4404 11.188 27.2444 11.352 27.0044 11.52C26.7644 11.68 26.4884 11.82 26.1764 11.94C25.8724 12.052 25.5404 12.108 25.1804 12.108C24.6604 12.108 24.2364 11.968 23.9084 11.688C23.5884 11.408 23.4284 11.004 23.4284 10.476V9.84C23.4284 9.384 23.5684 9.032 23.8484 8.784C24.1364 8.528 24.5364 8.4 25.0484 8.4H27.4844V7.884C27.4844 7.524 27.4004 7.268 27.2324 7.116C27.0724 6.956 26.7604 6.876 26.2964 6.876C25.9924 6.876 25.6084 6.892 25.1444 6.924C24.6884 6.956 24.2364 6.992 23.7884 7.032L23.6924 6.276C24.0924 6.212 24.5524 6.152 25.0724 6.096C25.5924 6.04 26.0724 6.012 26.5124 6.012ZM25.3844 11.232C25.6724 11.24 26.0084 11.172 26.3924 11.028C26.7764 10.884 27.1404 10.66 27.4844 10.356V9.168L25.2284 9.18C24.9484 9.188 24.7524 9.264 24.6404 9.408C24.5284 9.544 24.4724 9.736 24.4724 9.984V10.356C24.4724 10.66 24.5444 10.884 24.6884 11.028C24.8324 11.164 25.0644 11.232 25.3844 11.232ZM31.3703 3.6L31.3583 10.392C31.3583 10.912 31.6263 11.172 32.1623 11.172H32.7263L32.8463 11.952C32.7343 12.008 32.5623 12.048 32.3303 12.072C32.1063 12.096 31.9223 12.108 31.7783 12.108C31.3463 12.108 30.9983 11.98 30.7343 11.724C30.4783 11.468 30.3503 11.1 30.3503 10.62V3.6H31.3703ZM36.6608 6.012C37.3088 6.012 37.8048 6.148 38.1488 6.42C38.4928 6.684 38.6648 7.172 38.6648 7.884V12H37.8608L37.7408 11.028C37.5888 11.188 37.3928 11.352 37.1528 11.52C36.9128 11.68 36.6368 11.82 36.3248 11.94C36.0208 12.052 35.6888 12.108 35.3288 12.108C34.8088 12.108 34.3848 11.968 34.0568 11.688C33.7368 11.408 33.5768 11.004 33.5768 10.476V9.84C33.5768 9.384 33.7168 9.032 33.9968 8.784C34.2848 8.528 34.6848 8.4 35.1968 8.4H37.6328V7.884C37.6328 7.524 37.5488 7.268 37.3808 7.116C37.2208 6.956 36.9088 6.876 36.4448 6.876C36.1408 6.876 35.7568 6.892 35.2928 6.924C34.8368 6.956 34.3848 6.992 33.9368 7.032L33.8408 6.276C34.2408 6.212 34.7008 6.152 35.2208 6.096C35.7408 6.04 36.2208 6.012 36.6608 6.012ZM35.5328 11.232C35.8208 11.24 36.1568 11.172 36.5408 11.028C36.9248 10.884 37.2888 10.66 37.6328 10.356V9.168L35.3768 9.18C35.0968 9.188 34.9008 9.264 34.7888 9.408C34.6768 9.544 34.6208 9.736 34.6208 9.984V10.356C34.6208 10.66 34.6928 10.884 34.8368 11.028C34.9808 11.164 35.2128 11.232 35.5328 11.232ZM42.4308 6.012C42.8148 6.02 43.2308 6.04 43.6788 6.072C44.1268 6.096 44.5308 6.136 44.8908 6.192L44.8068 6.936C44.4388 6.92 44.0668 6.908 43.6908 6.9C43.3228 6.884 42.9548 6.876 42.5868 6.876C42.2268 6.868 41.9428 6.876 41.7348 6.9C41.5268 6.924 41.3748 6.988 41.2788 7.092C41.1908 7.196 41.1468 7.372 41.1468 7.62C41.1468 7.924 41.2188 8.124 41.3628 8.22C41.5068 8.316 41.7188 8.396 41.9988 8.46L43.7028 8.844C44.1668 8.956 44.5068 9.128 44.7228 9.36C44.9468 9.592 45.0588 9.956 45.0588 10.452C45.0588 10.932 44.9668 11.292 44.7828 11.532C44.6068 11.772 44.3348 11.932 43.9668 12.012C43.5988 12.092 43.1308 12.132 42.5628 12.132C42.3548 12.132 42.0428 12.124 41.6268 12.108C41.2188 12.092 40.7668 12.044 40.2708 11.964L40.3428 11.22C40.6308 11.236 40.9428 11.252 41.2788 11.268C41.6228 11.276 41.9828 11.276 42.3588 11.268C42.7988 11.268 43.1428 11.248 43.3908 11.208C43.6388 11.168 43.8148 11.092 43.9188 10.98C44.0228 10.86 44.0748 10.684 44.0748 10.452C44.0748 10.164 43.9908 9.972 43.8228 9.876C43.6548 9.78 43.4308 9.7 43.1508 9.636L41.4708 9.252C40.9988 9.14 40.6588 8.96 40.4508 8.712C40.2508 8.464 40.1508 8.1 40.1508 7.62C40.1508 7.164 40.2308 6.82 40.3908 6.588C40.5508 6.356 40.7988 6.2 41.1348 6.12C41.4708 6.04 41.9028 6.004 42.4308 6.012ZM50.1325 6.012C51.1885 6.012 51.7165 6.548 51.7165 7.62V12H50.6845V7.908C50.6845 7.516 50.6205 7.248 50.4925 7.104C50.3725 6.952 50.1605 6.876 49.8565 6.876C49.5125 6.876 49.1645 6.956 48.8125 7.116C48.4685 7.268 48.0645 7.492 47.6005 7.788V12H46.5805V3.6H47.6005L47.6125 5.916C47.6125 6.132 47.6045 6.336 47.5885 6.528C47.5805 6.72 47.5645 6.896 47.5405 7.056C47.9805 6.736 48.4125 6.484 48.8365 6.3C49.2685 6.108 49.7005 6.012 50.1325 6.012ZM56.8772 6.156V6.96H55.0172V10.392C55.0172 10.672 55.0772 10.872 55.1972 10.992C55.3172 11.112 55.5212 11.172 55.8092 11.172H56.6972L56.8172 11.952C56.6252 12.008 56.3932 12.048 56.1212 12.072C55.8492 12.096 55.6412 12.108 55.4972 12.108C55.0092 12.108 54.6372 11.972 54.3812 11.7C54.1252 11.428 53.9972 11.036 53.9972 10.524V6.96H52.9412V6.216L53.9972 6.156V4.428H55.0172V6.156H56.8772ZM58.9155 3.672C59.1235 3.672 59.2275 3.776 59.2275 3.984V4.668C59.2275 4.876 59.1235 4.98 58.9155 4.98H58.4355C58.2275 4.98 58.1235 4.876 58.1235 4.668V3.984C58.1235 3.776 58.2275 3.672 58.4355 3.672H58.9155ZM59.1795 6.156V12H58.1715V6.156H59.1795ZM61.8921 6.156L62.0001 7.08C62.4241 6.744 62.8441 6.484 63.2601 6.3C63.6841 6.108 64.0961 6.012 64.4961 6.012H64.7601L64.6401 6.972H64.3041C63.9761 6.972 63.6441 7.04 63.3081 7.176C62.9801 7.304 62.5841 7.484 62.1201 7.716V12H61.1001V6.156H61.8921ZM66.7085 3.672C66.9165 3.672 67.0205 3.776 67.0205 3.984V4.668C67.0205 4.876 66.9165 4.98 66.7085 4.98H66.2285C66.0205 4.98 65.9165 4.876 65.9165 4.668V3.984C65.9165 3.776 66.0205 3.672 66.2285 3.672H66.7085ZM66.9725 6.156V12H65.9645V6.156H66.9725ZM70.837 6.012C71.221 6.02 71.637 6.04 72.085 6.072C72.533 6.096 72.937 6.136 73.297 6.192L73.213 6.936C72.845 6.92 72.473 6.908 72.097 6.9C71.729 6.884 71.361 6.876 70.993 6.876C70.633 6.868 70.349 6.876 70.141 6.9C69.933 6.924 69.781 6.988 69.685 7.092C69.597 7.196 69.553 7.372 69.553 7.62C69.553 7.924 69.625 8.124 69.769 8.22C69.913 8.316 70.125 8.396 70.405 8.46L72.109 8.844C72.573 8.956 72.913 9.128 73.129 9.36C73.353 9.592 73.465 9.956 73.465 10.452C73.465 10.932 73.373 11.292 73.189 11.532C73.013 11.772 72.741 11.932 72.373 12.012C72.005 12.092 71.537 12.132 70.969 12.132C70.761 12.132 70.449 12.124 70.033 12.108C69.625 12.092 69.173 12.044 68.677 11.964L68.749 11.22C69.037 11.236 69.349 11.252 69.685 11.268C70.029 11.276 70.389 11.276 70.765 11.268C71.205 11.268 71.549 11.248 71.797 11.208C72.045 11.168 72.221 11.092 72.325 10.98C72.429 10.86 72.481 10.684 72.481 10.452C72.481 10.164 72.397 9.972 72.229 9.876C72.061 9.78 71.837 9.7 71.557 9.636L69.877 9.252C69.405 9.14 69.065 8.96 68.857 8.712C68.657 8.464 68.557 8.1 68.557 7.62C68.557 7.164 68.637 6.82 68.797 6.588C68.957 6.356 69.205 6.2 69.541 6.12C69.877 6.04 70.309 6.004 70.837 6.012ZM78.5388 6.012C79.5948 6.012 80.1228 6.548 80.1228 7.62V12H79.0908V7.908C79.0908 7.516 79.0268 7.248 78.8988 7.104C78.7788 6.952 78.5668 6.876 78.2628 6.876C77.9188 6.876 77.5708 6.956 77.2188 7.116C76.8748 7.268 76.4708 7.492 76.0068 7.788V12H74.9868V3.6H76.0068L76.0188 5.916C76.0188 6.132 76.0108 6.336 75.9948 6.528C75.9868 6.72 75.9708 6.896 75.9468 7.056C76.3868 6.736 76.8188 6.484 77.2428 6.3C77.6748 6.108 78.1068 6.012 78.5388 6.012ZM87.1273 3.72V12H86.0713V5.436C86.0713 5.316 86.0753 5.196 86.0833 5.076C86.0913 4.956 86.1073 4.836 86.1313 4.716L84.1033 5.352L83.9593 4.572L86.0713 3.72H87.1273ZM93.9966 3.72L93.9486 4.62H90.4686L90.3486 6.876L91.2366 6.948C91.9646 6.996 92.5486 7.108 92.9886 7.284C93.4286 7.46 93.7486 7.728 93.9486 8.088C94.1486 8.44 94.2446 8.916 94.2366 9.516C94.2366 9.852 94.2006 10.176 94.1286 10.488C94.0646 10.8 93.9366 11.08 93.7446 11.328C93.5606 11.576 93.2926 11.776 92.9406 11.928C92.5886 12.072 92.1286 12.144 91.5606 12.144C91.2326 12.144 90.8526 12.12 90.4206 12.072C89.9886 12.024 89.5486 11.948 89.1006 11.844L89.2206 10.992C89.5966 11.056 89.9726 11.108 90.3486 11.148C90.7246 11.188 91.0486 11.208 91.3206 11.208C91.8486 11.208 92.2446 11.144 92.5086 11.016C92.7726 10.88 92.9526 10.688 93.0486 10.44C93.1446 10.184 93.1966 9.876 93.2046 9.516C93.2126 9.132 93.1646 8.832 93.0606 8.616C92.9646 8.392 92.8046 8.228 92.5806 8.124C92.3646 8.012 92.0726 7.936 91.7046 7.896C91.3446 7.848 90.9006 7.808 90.3726 7.776L89.8206 7.74C89.7006 7.724 89.6006 7.676 89.5206 7.596C89.4486 7.508 89.4166 7.4 89.4246 7.272L89.6166 3.72H93.9966ZM97.3942 3.564C98.1142 3.564 98.6142 3.756 98.8942 4.14C99.1822 4.516 99.3262 5.144 99.3262 6.024C99.3262 6.896 99.1822 7.524 98.8942 7.908C98.6142 8.292 98.1142 8.484 97.3942 8.484C96.6822 8.484 96.1822 8.292 95.8942 7.908C95.6142 7.524 95.4742 6.896 95.4742 6.024C95.4742 5.144 95.6142 4.516 95.8942 4.14C96.1822 3.756 96.6822 3.564 97.3942 3.564ZM103.298 3.72L97.9342 12H97.2142L102.578 3.72H103.298ZM97.3942 4.212C96.9622 4.212 96.6622 4.348 96.4942 4.62C96.3342 4.892 96.2542 5.36 96.2542 6.024C96.2542 6.696 96.3342 7.168 96.4942 7.44C96.6622 7.704 96.9622 7.836 97.3942 7.836C97.8342 7.836 98.1342 7.704 98.2942 7.44C98.4542 7.168 98.5342 6.696 98.5342 6.024C98.5342 5.36 98.4542 4.892 98.2942 4.62C98.1342 4.348 97.8342 4.212 97.3942 4.212ZM103.142 7.2C103.854 7.2 104.35 7.392 104.63 7.776C104.918 8.152 105.062 8.776 105.062 9.648C105.062 10.528 104.918 11.16 104.63 11.544C104.35 11.92 103.854 12.108 103.142 12.108C102.43 12.108 101.93 11.92 101.642 11.544C101.362 11.16 101.222 10.528 101.222 9.648C101.222 8.776 101.362 8.152 101.642 7.776C101.93 7.392 102.43 7.2 103.142 7.2ZM103.13 7.848C102.69 7.848 102.39 7.98 102.23 8.244C102.07 8.508 101.994 8.976 102.002 9.648C101.994 10.328 102.07 10.804 102.23 11.076C102.39 11.34 102.69 11.472 103.13 11.472C103.57 11.472 103.87 11.34 104.03 11.076C104.198 10.804 104.282 10.328 104.282 9.648C104.282 8.976 104.198 8.508 104.03 8.244C103.87 7.98 103.57 7.848 103.13 7.848Z" fill="#201F1E"/>
<defs>
<filter id="filter0_d" x="9" y="15" width="30" height="30" filterUnits="userSpaceOnUse" color-interpolation-filters="sRGB">
<feFlood flood-opacity="0" result="BackgroundImageFix"/>
<feColorMatrix in="SourceAlpha" type="matrix" values="0 0 0 0 0 0 0 0 0 0 0 0 0 0 0 0 0 0 127 0"/>
<feOffset/>
<feGaussianBlur stdDeviation="5"/>
<feColorMatrix type="matrix" values="0 0 0 0 0 0 0 0 0 0 0 0 0 0 0 0 0 0 0.25 0"/>
<feBlend mode="normal" in2="BackgroundImageFix" result="effect1_dropShadow"/>
<feBlend mode="normal" in="SourceGraphic" in2="effect1_dropShadow" result="shape"/>
</filter>
</defs>
</svg>
